<svg width="80" height="56" viewBox="0 0 80 56" fill="none" xmlns="http://www.w3.org/2000/svg">
<path d="M33.2227 35.7793C35.2132 37.7693 37.9629 39 41 39C41.2717 39 41.5408 38.9862 41.8076 38.9668V43.8086C41.8076 44.01 41.6067 44.2119 41.4053 44.2119C37.206 44.2119 33.0069 42.6123 30.0039 39.4141C29.8025 39.4019 29.8027 39.2002 29.8027 39.2002C29.8027 39.1001 29.8023 39.0496 29.8271 39.0244C29.8523 38.9992 29.9032 38.999 30.0039 38.999L33.2227 35.7793ZM64.4033 25.998C64.6048 25.9982 65.001 26.2001 65.001 26.5967C65.0009 31.9982 62.8034 36.9974 59.001 40.7998C59.0007 41.0008 58.7998 41.001 58.7998 41.001C58.7143 41.001 58.6648 41.0008 58.6211 40.9854C58.5621 40.9644 58.5128 40.9152 58.3975 40.7998L53.5996 36.002L50.708 33.1719C51.5312 31.6299 52 29.87 52 28C52 27.3161 51.9339 26.6474 51.8145 25.998H64.4033ZM22.5986 6.99805C22.8 6.99805 23.0019 6.99783 23.002 7.19922L34.751 18.9482C32.6215 20.4212 31.0372 22.6251 30.3613 25.1982H15.5986C15.1958 25.1982 15 24.9972 15 24.6006C15 18.198 17.6001 12.0025 22.2021 7.40039C22.2757 7.32455 22.322 7.24867 22.3613 7.18359C22.4263 7.07611 22.4734 6.99817 22.5986 6.99805ZM43.4072 3C48.6075 3 53.6067 5.00242 57.4092 8.79883C57.5205 8.91363 57.5684 8.96283 57.5889 9.02148C57.6042 9.06546 57.6045 9.11502 57.6045 9.20117C57.6045 9.28676 57.6043 9.33612 57.5889 9.37988C57.5679 9.43909 57.5182 9.48869 57.4023 9.60449L52.5996 14.4014L47.7734 19.3369C46.3563 18.2273 44.662 17.4571 42.8096 17.1504V3.59863C42.8096 3.39722 43.0105 3.00002 43.4072 3Z" class="svg-primary-color"/>
<path d="M60.8008 44.9984C61.0022 45.1998 61.0021 45.5968 60.8008 45.7982C56.1988 50.4002 49.8022 53.0003 43.1982 53.0004L43.0029 52.7992C42.8871 52.6834 42.8373 52.6338 42.8164 52.5746C42.801 52.5309 42.8008 52.4814 42.8008 52.3959V43.9974L42.7354 38.8617C45.7631 38.3818 48.3771 36.6665 50.0498 34.2484L60.8008 44.9984ZM30.1572 26.1527C30.0556 26.7534 30 27.3707 30 28.0004C30.0001 30.5787 30.8893 32.9483 32.375 34.8236L26.1992 41.0004C25.9978 41.2016 25.6018 41.2015 25.4004 41.0004C21.5979 37.1979 19.6016 32.1989 19.6016 26.7972C19.6757 26.7231 19.7222 26.6479 19.7617 26.5834C19.8262 26.4782 19.8734 26.4009 19.998 26.4008C19.998 26.4008 20.2 26.1996 20.4014 26.1996H27.2002L30.1572 26.1527ZM53.002 15.7914C53.2031 15.5905 53.4041 15.5905 53.4043 15.7914C55.803 18.1901 57.0059 21.1935 57.0059 24.5931L56.8037 24.9955H51.5811C51.0489 23.1176 50.0319 21.445 48.6719 20.1205L53.002 15.7914ZM41.8018 7.40076V17.0316C41.5369 17.0125 41.2697 17.0004 41 17.0004C39.1463 17.0004 37.4005 17.46 35.8682 18.2699L30.0039 12.3988C29.8025 12.1974 29.8025 11.9965 30.0039 11.8011C33.0006 8.79834 36.998 6.99756 41.3984 6.99744L41.8018 7.40076Z" class="svg-primary-color"/>
<path d="M60.8008 44.9984C61.0022 45.1998 61.0021 45.5968 60.8008 45.7982C56.1988 50.4002 49.8022 53.0003 43.1982 53.0004L43.0029 52.7992C42.8871 52.6834 42.8373 52.6338 42.8164 52.5746C42.801 52.5309 42.8008 52.4814 42.8008 52.3959V43.9974L42.7354 38.8617C45.7631 38.3818 48.3771 36.6665 50.0498 34.2484L60.8008 44.9984ZM30.1572 26.1527C30.0556 26.7534 30 27.3707 30 28.0004C30.0001 30.5787 30.8893 32.9483 32.375 34.8236L26.1992 41.0004C25.9978 41.2016 25.6018 41.2015 25.4004 41.0004C21.5979 37.1979 19.6016 32.1989 19.6016 26.7972C19.6757 26.7231 19.7222 26.6479 19.7617 26.5834C19.8262 26.4782 19.8734 26.4009 19.998 26.4008C19.998 26.4008 20.2 26.1996 20.4014 26.1996H27.2002L30.1572 26.1527ZM53.002 15.7914C53.2031 15.5905 53.4041 15.5905 53.4043 15.7914C55.803 18.1901 57.0059 21.1935 57.0059 24.5931L56.8037 24.9955H51.5811C51.0489 23.1176 50.0319 21.445 48.6719 20.1205L53.002 15.7914ZM41.8018 7.40076V17.0316C41.5369 17.0125 41.2697 17.0004 41 17.0004C39.1463 17.0004 37.4005 17.46 35.8682 18.2699L30.0039 12.3988C29.8025 12.1974 29.8025 11.9965 30.0039 11.8011C33.0006 8.79834 36.998 6.99756 41.3984 6.99744L41.8018 7.40076Z" fill="black" fill-opacity="0.3"/>
</svg>
