<svg width="80" height="56" viewBox="0 0 80 56" fill="none" xmlns="http://www.w3.org/2000/svg">
<path fill-rule="evenodd" clip-rule="evenodd" d="M40 53C26.1932 53 15 41.8068 15 28C15 14.1932 26.1932 3 40 3C53.8068 3 65 14.1932 65 28C65 41.8068 53.8068 53 40 53ZM40 48.4545C51.2966 48.4545 60.4546 39.2966 60.4546 28C60.4546 16.7034 51.2966 7.54545 40 7.54545C28.7034 7.54545 19.5455 16.7034 19.5455 28C19.5455 39.2966 28.7034 48.4545 40 48.4545Z" class="svg-primary-color"/>
<path d="M27.0086 30.2481H58.1486V24.7581C58.1486 24.7581 54.5 24.5 53.1386 24.7581C51.8786 25.1481 50.6486 25.2681 49.2686 25.2681C45.5186 25.2681 42.2786 24.0081 40.3886 22.1481C40.3886 22.0281 40.2686 22.0281 40.1486 21.9081C40.0286 21.7881 39.9086 21.5181 39.6386 21.2781C38.1386 19.6581 35.6486 18.5181 32.7686 18.5181C29.5286 18.5181 26.6486 20.0181 25.2686 22.0281V27.6681C25.5086 28.1781 25.8986 28.5381 26.4086 29.0481C26.6186 29.4981 26.8886 29.8881 27.0086 30.2481Z" class="svg-primary-color"/>
<path d="M27.0086 30.2481H58.1486V24.7581C58.1486 24.7581 54.5 24.5 53.1386 24.7581C51.8786 25.1481 50.6486 25.2681 49.2686 25.2681C45.5186 25.2681 42.2786 24.0081 40.3886 22.1481C40.3886 22.0281 40.2686 22.0281 40.1486 21.9081C40.0286 21.7881 39.9086 21.5181 39.6386 21.2781C38.1386 19.6581 35.6486 18.5181 32.7686 18.5181C29.5286 18.5181 26.6486 20.0181 25.2686 22.0281V27.6681C25.5086 28.1781 25.8986 28.5381 26.4086 29.0481C26.6186 29.4981 26.8886 29.8881 27.0086 30.2481Z" fill="black" fill-opacity="0.4"/>
<path d="M54.7644 22.3746C53.3952 22.7984 52.7014 23.8519 51.5655 24.5619C49.7336 26.0383 46.9995 27.0773 44.0467 27.0773C40.4103 27.0773 37.3208 25.7102 35.4889 23.6597C35.4889 23.5503 35.3795 23.4409 35.2702 23.4409C35.1608 23.2222 34.9147 22.9761 34.8054 22.8668C33.329 21.0349 30.9229 19.9139 28.1888 19.9139C26.0289 19.9139 24.197 20.5975 22.7206 21.7458C22.1465 23.3316 21.8184 25.2728 21.8184 27.214C21.8184 29.8388 22.3925 32.3541 23.4041 34.5141C25.6735 39.08 29.4465 42.607 33.9851 44.3022C34.0945 44.3022 34.2039 44.4116 34.3406 44.4116C34.5593 44.5209 34.6687 44.5209 34.9147 44.6303C36.5005 45.0951 38.3324 45.4232 40.0549 45.4232C41.8867 45.4232 43.6912 45.2044 45.4137 44.6303C45.5231 44.6303 45.6324 44.5209 45.7692 44.5209C45.9879 44.4116 46.3433 44.3022 46.562 44.1655C50.6632 42.443 54.0808 39.2714 56.3502 35.1703C57.4985 32.7916 58.182 30.0575 58.182 27.1867C58.182 25.4642 57.9633 23.8784 57.4985 22.2926C56.815 22.0465 55.776 22.0465 54.7644 22.3746Z" class="svg-primary-color"/>
</svg>
