<svg width="80" height="56" viewBox="0 0 80 56" fill="none" xmlns="http://www.w3.org/2000/svg">
<path d="M13 7.66675C13 7.11446 13.4477 6.66675 14 6.66675H65.3333C65.8856 6.66675 66.3333 7.11446 66.3333 7.66675V17.3334H13V7.66675Z" class="svg-primary-color"/>
<path d="M29 20.0001H13V28.0001H29V20.0001Z" class="svg-primary-color"/>
<path d="M29 20.0001H13V28.0001H29V20.0001Z" fill="black" fill-opacity="0.4"/>
<path d="M47.6667 20.0001H31.6667V28.0001H47.6667V20.0001Z" class="svg-primary-color"/>
<path d="M47.6667 20.0001H31.6667V28.0001H47.6667V20.0001Z" fill="black" fill-opacity="0.4"/>
<path d="M66.3333 20.0001H50.3333V28.0001H66.3333V20.0001Z" class="svg-primary-color"/>
<path d="M66.3333 20.0001H50.3333V28.0001H66.3333V20.0001Z" fill="black" fill-opacity="0.4"/>
<path d="M29 41.3334H13V48.0001C13 48.7364 13.597 49.3334 14.3333 49.3334H29V41.3334Z" class="svg-primary-color"/>
<path d="M29 41.3334H13V48.0001C13 48.7364 13.597 49.3334 14.3333 49.3334H29V41.3334Z" fill="black" fill-opacity="0.4"/>
<path d="M47.6667 41.3334H31.6667V49.3334H47.6667V41.3334Z" class="svg-primary-color"/>
<path d="M47.6667 41.3334H31.6667V49.3334H47.6667V41.3334Z" fill="black" fill-opacity="0.4"/>
<path d="M66.3333 41.3334H50.3333V49.3334H65C65.7364 49.3334 66.3333 48.7364 66.3333 48.0001V41.3334Z" class="svg-primary-color"/>
<path d="M66.3333 41.3334H50.3333V49.3334H65C65.7364 49.3334 66.3333 48.7364 66.3333 48.0001V41.3334Z" fill="black" fill-opacity="0.4"/>
<path d="M29 30.6667H13V38.6667H29V30.6667Z" class="svg-primary-color"/>
<path d="M29 30.6667H13V38.6667H29V30.6667Z" fill="black" fill-opacity="0.4"/>
<path d="M47.6667 30.6667H31.6667V38.6667H47.6667V30.6667Z" class="svg-primary-color"/>
<path d="M47.6667 30.6667H31.6667V38.6667H47.6667V30.6667Z" fill="black" fill-opacity="0.4"/>
<path d="M66.3333 30.6667H50.3333V38.6667H66.3333V30.6667Z" class="svg-primary-color"/>
<path d="M66.3333 30.6667H50.3333V38.6667H66.3333V30.6667Z" fill="black" fill-opacity="0.4"/>
</svg>
