<svg width="80" height="56" viewBox="0 0 80 56" fill="none" xmlns="http://www.w3.org/2000/svg">
<path fill-rule="evenodd" clip-rule="evenodd" d="M38.6602 4.67605C38.9362 4.67043 39.162 4.89413 39.1621 5.17019V11.6809C29.5611 11.7391 21.796 19.5399 21.7959 29.1546C21.7959 38.8054 29.6197 46.6292 39.2705 46.6292C48.9212 46.629 56.7441 38.8053 56.7441 29.1546C56.7441 29.0472 56.7422 28.9402 56.7402 28.8333H62.8242C63.1003 28.8334 63.325 29.0592 63.3193 29.3352C63.052 42.4477 52.3386 52.9953 39.1621 52.9954C25.8179 52.9954 15.0001 42.1775 15 28.8333C15 15.6567 25.5475 4.94321 38.6602 4.67605Z" class="svg-primary-color"/>
<path fill-rule="evenodd" clip-rule="evenodd" d="M38.6602 4.67605C38.9362 4.67043 39.162 4.89413 39.1621 5.17019V11.6809C29.5611 11.7391 21.796 19.5399 21.7959 29.1546C21.7959 38.8054 29.6197 46.6292 39.2705 46.6292C48.9212 46.629 56.7441 38.8053 56.7441 29.1546C56.7441 29.0472 56.7422 28.9402 56.7402 28.8333H62.8242C63.1003 28.8334 63.325 29.0592 63.3193 29.3352C63.052 42.4477 52.3386 52.9953 39.1621 52.9954C25.8179 52.9954 15.0001 42.1775 15 28.8333C15 15.6567 25.5475 4.94321 38.6602 4.67605Z" fill="black" fill-opacity="0.3"/>
<path fill-rule="evenodd" clip-rule="evenodd" d="M44.8887 3.003C55.3781 4.29775 63.6936 12.6131 64.9883 23.1026C65.0242 23.3958 64.7926 23.6514 64.4971 23.6514H55.8584C54.0791 18.2828 49.768 14.0692 44.3389 12.4259V3.49422C44.3389 3.19855 44.5952 2.96678 44.8887 3.003Z" class="svg-primary-color"/>
<path fill-rule="evenodd" clip-rule="evenodd" d="M44.8887 3.003C55.3781 4.29775 63.6936 12.6131 64.9883 23.1026C65.0242 23.3958 64.7926 23.6514 64.4971 23.6514H55.8584C54.0791 18.2828 49.768 14.0692 44.3389 12.4259V3.49422C44.3389 3.19855 44.5952 2.96678 44.8887 3.003Z" fill="black" fill-opacity="0.4"/>
</svg>
