<svg width="80" height="56" viewBox="0 0 80 56" fill="none" xmlns="http://www.w3.org/2000/svg">
<path d="M33.2227 35.7793C35.2132 37.7693 37.9629 39 41 39C41.2717 39 41.5408 38.9862 41.8076 38.9668V43.8086C41.8076 44.01 41.6067 44.2119 41.4053 44.2119C37.206 44.2119 33.0069 42.6123 30.0039 39.4141C29.8025 39.4019 29.8027 39.2002 29.8027 39.2002C29.8027 39.1001 29.8023 39.0496 29.8271 39.0244C29.8523 38.9992 29.9032 38.999 30.0039 38.999L33.2227 35.7793ZM64.4033 25.998C64.6048 25.9982 65.001 26.2001 65.001 26.5967C65.0009 31.9982 62.8034 36.9974 59.001 40.7998C59.0007 41.0008 58.7998 41.001 58.7998 41.001C58.7143 41.001 58.6648 41.0008 58.6211 40.9854C58.5621 40.9644 58.5128 40.9152 58.3975 40.7998L53.5996 36.002L50.708 33.1719C51.5312 31.6299 52 29.87 52 28C52 27.3161 51.9339 26.6474 51.8145 25.998H64.4033ZM22.5986 6.99805C22.8 6.99805 23.0019 6.99783 23.002 7.19922L34.751 18.9482C32.6215 20.4212 31.0372 22.6251 30.3613 25.1982H15.5986C15.1958 25.1982 15 24.9972 15 24.6006C15 18.198 17.6001 12.0025 22.2021 7.40039C22.2757 7.32455 22.322 7.24867 22.3613 7.18359C22.4263 7.07611 22.4734 6.99817 22.5986 6.99805ZM43.4072 3C48.6075 3 53.6067 5.00242 57.4092 8.79883C57.5205 8.91363 57.5684 8.96283 57.5889 9.02148C57.6042 9.06546 57.6045 9.11502 57.6045 9.20117C57.6045 9.28676 57.6043 9.33612 57.5889 9.37988C57.5679 9.43909 57.5182 9.48869 57.4023 9.60449L52.5996 14.4014L47.7734 19.3369C46.3563 18.2273 44.662 17.4571 42.8096 17.1504V3.59863C42.8096 3.39722 43.0105 3.00002 43.4072 3Z" class="svg-primary-color"/>
<path d="M33.2227 35.7793C35.2132 37.7693 37.9629 39 41 39C41.2717 39 41.5408 38.9862 41.8076 38.9668V43.8086C41.8076 44.01 41.6067 44.2119 41.4053 44.2119C37.206 44.2119 33.0069 42.6123 30.0039 39.4141C29.8025 39.4019 29.8027 39.2002 29.8027 39.2002C29.8027 39.1001 29.8023 39.0496 29.8271 39.0244C29.8523 38.9992 29.9032 38.999 30.0039 38.999L33.2227 35.7793ZM64.4033 25.998C64.6048 25.9982 65.001 26.2001 65.001 26.5967C65.0009 31.9982 62.8034 36.9974 59.001 40.7998C59.0007 41.0008 58.7998 41.001 58.7998 41.001C58.7143 41.001 58.6648 41.0008 58.6211 40.9854C58.5621 40.9644 58.5128 40.9152 58.3975 40.7998L53.5996 36.002L50.708 33.1719C51.5312 31.6299 52 29.87 52 28C52 27.3161 51.9339 26.6474 51.8145 25.998H64.4033ZM22.5986 6.99805C22.8 6.99805 23.0019 6.99783 23.002 7.19922L34.751 18.9482C32.6215 20.4212 31.0372 22.6251 30.3613 25.1982H15.5986C15.1958 25.1982 15 24.9972 15 24.6006C15 18.198 17.6001 12.0025 22.2021 7.40039C22.2757 7.32455 22.322 7.24867 22.3613 7.18359C22.4263 7.07611 22.4734 6.99817 22.5986 6.99805ZM43.4072 3C48.6075 3 53.6067 5.00242 57.4092 8.79883C57.5205 8.91363 57.5684 8.96283 57.5889 9.02148C57.6042 9.06546 57.6045 9.11502 57.6045 9.20117C57.6045 9.28676 57.6043 9.33612 57.5889 9.37988C57.5679 9.43909 57.5182 9.48869 57.4023 9.60449L52.5996 14.4014L47.7734 19.3369C46.3563 18.2273 44.662 17.4571 42.8096 17.1504V3.59863C42.8096 3.39722 43.0105 3.00002 43.4072 3Z" fill="black" fill-opacity="0.3"/>
<path fill-rule="evenodd" clip-rule="evenodd" d="M41.8017 17.0286V7.40027L41.3989 6.99744C36.9982 6.99744 33.0004 8.79798 30.0036 11.8009C29.8022 11.9962 29.8022 12.1977 30.0036 12.3991L35.8667 18.2686C37.3992 17.4585 39.146 16.9999 41 16.9999C41.2696 16.9999 41.537 17.0096 41.8017 17.0286ZM51.5848 24.9959C51.0528 23.1176 50.0343 21.4438 48.6742 20.1191L53.0015 15.7917C53.2029 15.5903 53.4043 15.5903 53.4043 15.7917C55.803 18.1904 57.0054 21.1934 57.0054 24.5931L56.804 24.9959H51.5848ZM42.7358 38.8637C45.7634 38.3838 48.3799 36.6686 50.0526 34.2506L60.8006 44.9986C61.002 45.2 61.002 45.5968 60.8006 45.7982C56.1985 50.4002 49.802 53.0004 43.1979 53.0004L43.0026 52.7989C42.8868 52.6831 42.8376 52.6339 42.8167 52.5747C42.8012 52.5309 42.8012 52.4817 42.8012 52.3961V43.9976L42.7358 38.8637ZM30.1544 26.1528C30.0529 26.7533 30 27.3704 30 27.9999C30 30.5788 30.8875 32.9505 32.3738 34.8261L26.1995 41.0004C25.9981 41.2018 25.6014 41.2018 25.3999 41.0004C21.5974 37.1979 19.6016 32.1991 19.6016 26.7974C19.6758 26.7232 19.7218 26.6481 19.7614 26.5835C19.826 26.4781 19.8734 26.4007 19.9983 26.4007C19.9983 26.4007 20.1997 26.1993 20.4011 26.1993H27.2005L30.1544 26.1528Z" class="svg-primary-color"/>
<path fill-rule="evenodd" clip-rule="evenodd" d="M41.8017 17.0286V7.40027L41.3989 6.99744C36.9982 6.99744 33.0004 8.79798 30.0036 11.8009C29.8022 11.9962 29.8022 12.1977 30.0036 12.3991L35.8667 18.2686C37.3992 17.4585 39.146 16.9999 41 16.9999C41.2696 16.9999 41.537 17.0096 41.8017 17.0286ZM51.5848 24.9959C51.0528 23.1176 50.0343 21.4438 48.6742 20.1191L53.0015 15.7917C53.2029 15.5903 53.4043 15.5903 53.4043 15.7917C55.803 18.1904 57.0054 21.1934 57.0054 24.5931L56.804 24.9959H51.5848ZM42.7358 38.8637C45.7634 38.3838 48.3799 36.6686 50.0526 34.2506L60.8006 44.9986C61.002 45.2 61.002 45.5968 60.8006 45.7982C56.1985 50.4002 49.802 53.0004 43.1979 53.0004L43.0026 52.7989C42.8868 52.6831 42.8376 52.6339 42.8167 52.5747C42.8012 52.5309 42.8012 52.4817 42.8012 52.3961V43.9976L42.7358 38.8637ZM30.1544 26.1528C30.0529 26.7533 30 27.3704 30 27.9999C30 30.5788 30.8875 32.9505 32.3738 34.8261L26.1995 41.0004C25.9981 41.2018 25.6014 41.2018 25.3999 41.0004C21.5974 37.1979 19.6016 32.1991 19.6016 26.7974C19.6758 26.7232 19.7218 26.6481 19.7614 26.5835C19.826 26.4781 19.8734 26.4007 19.9983 26.4007C19.9983 26.4007 20.1997 26.1993 20.4011 26.1993H27.2005L30.1544 26.1528Z" fill="black" fill-opacity="0.4"/>
</svg>
