<svg width="80" height="56" viewBox="0 0 80 56" fill="none" xmlns="http://www.w3.org/2000/svg">
<path d="M37.686 13.2311C37.2791 12.8243 36.6138 12.8438 36.2315 13.2738L34.8455 14.8328C34.1868 15.5736 33.2442 16.6333 32.1089 17.9092C29.8382 20.4611 26.7969 23.8774 23.714 27.3352C17.5164 34.2866 11.2327 41.3131 10.6063 41.9395C10.0205 42.5252 10.0205 43.475 10.6063 44.0608C11.1921 44.6466 12.1419 44.6466 12.7277 44.0608C13.4346 43.3538 19.8175 36.2137 25.9533 29.3317C29.0371 25.8728 32.0791 22.4558 34.3501 19.9035C35.4725 18.6421 36.4066 17.5918 37.0644 16.8522L49.5834 29.3711C49.9141 29.7019 50.43 29.7592 50.8253 29.509L72.851 15.569L72.8605 15.5623C73.5392 15.0872 73.7043 14.1519 73.2292 13.4732C72.7567 12.7983 71.8291 12.6314 71.1513 13.0968L50.5191 26.0642L37.686 13.2311Z" class="svg-primary-color"/>
<path d="M37.686 13.2311C37.2791 12.8243 36.6138 12.8438 36.2315 13.2738L34.8455 14.8328C34.1868 15.5736 33.2442 16.6333 32.1089 17.9092C29.8382 20.4611 26.7969 23.8774 23.714 27.3352C17.5164 34.2866 11.2327 41.3131 10.6063 41.9395C10.0205 42.5252 10.0205 43.475 10.6063 44.0608C11.1921 44.6466 12.1419 44.6466 12.7277 44.0608C13.4346 43.3538 19.8175 36.2137 25.9533 29.3317C29.0371 25.8728 32.0791 22.4558 34.3501 19.9035C35.4725 18.6421 36.4066 17.5918 37.0644 16.8522L49.5834 29.3711C49.9141 29.7019 50.43 29.7592 50.8253 29.509L72.851 15.569L72.8605 15.5623C73.5392 15.0872 73.7043 14.1519 73.2292 13.4732C72.7567 12.7983 71.8291 12.6314 71.1513 13.0968L50.5191 26.0642L37.686 13.2311Z" fill="black" fill-opacity="0.3"/>
<path d="M11.667 26.5C10.8386 26.5 10.167 27.1716 10.167 28C10.167 28.8284 10.8386 29.5 11.667 29.5H33.6392L42.646 40.1151C42.8119 40.3107 43.0467 40.4351 43.3017 40.4624L71.4856 43.489C72.3058 43.589 73.0528 43.0065 73.1554 42.1861C73.2582 41.364 72.6751 40.6143 71.8531 40.5115L44.4294 37.5801L35.3277 26.853C35.1377 26.6291 34.8588 26.5 34.5651 26.5H11.667Z" class="svg-primary-color"/>
<path d="M11.667 26.5C10.8386 26.5 10.167 27.1716 10.167 28C10.167 28.8284 10.8386 29.5 11.667 29.5H33.6392L42.646 40.1151C42.8119 40.3107 43.0467 40.4351 43.3017 40.4624L71.4856 43.489C72.3058 43.589 73.0528 43.0065 73.1554 42.1861C73.2582 41.364 72.6751 40.6143 71.8531 40.5115L44.4294 37.5801L35.3277 26.853C35.1377 26.6291 34.8588 26.5 34.5651 26.5H11.667Z" fill="black" fill-opacity="0.4"/>
<path fill-rule="evenodd" clip-rule="evenodd" d="M7 2.00391V51.0016L76 51.0016L76 54.0016H4V2.00391H7Z" class="svg-primary-color"/>
<path fill-rule="evenodd" clip-rule="evenodd" d="M7 2.00391V51.0016L76 51.0016L76 54.0016H4V2.00391H7Z" fill="black" fill-opacity="0.6"/>
</svg>
