<svg width="80" height="56" viewBox="0 0 80 56" fill="none" xmlns="http://www.w3.org/2000/svg">
<path d="M22.866 26.2814L18.3848 18.4458H61.8816L57.4004 26.2814H22.866Z" class="svg-primary-color"/>
<path d="M22.866 26.2814L18.3848 18.4458H61.8816L57.4004 26.2814H22.866Z" fill="black" fill-opacity="0.4"/>
<path d="M16.6043 14.6875H64.0493L67.9706 5.54437H12.0293L16.6043 14.6875Z" class="svg-primary-color"/>
<path d="M16.6043 14.6875H64.0493L67.9706 5.54437H12.0293L16.6043 14.6875Z" fill="black" fill-opacity="0.3"/>
<path d="M49.2822 38.6874H30.9822L25.1016 29.5449H55.1641L49.2822 38.6874Z" class="svg-primary-color"/>
<path d="M49.2822 38.6874H30.9822L25.1016 29.5449H55.1641L49.2822 38.6874Z" fill="black" fill-opacity="0.6"/>
<path d="M47.3209 50.4527H32.2891V41.3027H47.3209V50.4527Z" class="svg-primary-color"/>
<path d="M47.3209 50.4527H32.2891V41.3027H47.3209V50.4527Z" fill="black" fill-opacity="0.8"/>
</svg>
