<svg width="24" height="24" viewBox="0 0 24 24" fill="none" xmlns="http://www.w3.org/2000/svg">
<path d="M22.6662 10.9352H22.4815C22.5918 11.5417 22.647 12.1569 22.6466 12.7733C22.6505 13.5304 22.5604 14.2851 22.3783 15.02H22.8989C23.1216 15.02 23.3353 14.9315 23.4928 14.774C23.6504 14.6164 23.7389 14.4028 23.7389 14.18V12.008C23.7389 11.8671 23.7111 11.7276 23.6572 11.5975C23.6033 11.4673 23.5243 11.349 23.4247 11.2494C23.3251 11.1498 23.2068 11.0708 23.0767 11.0169C22.9465 10.9629 22.8071 10.9352 22.6662 10.9352Z" fill="#149CC5"/>
<path d="M1.35329 12.7733C1.35289 12.1569 1.40815 11.5417 1.51841 10.9352H1.33379C1.04929 10.9352 0.77645 11.0482 0.575285 11.2494C0.374121 11.4506 0.261108 11.7234 0.261108 12.0079V14.1799C0.261108 14.4027 0.349608 14.6164 0.507139 14.7739C0.664669 14.9314 0.878326 15.0199 1.10111 15.0199H1.62167C1.43954 14.2851 1.34939 13.5304 1.35329 12.7733Z" fill="#69CAA4"/>
<path d="M12 3.036C6.48872 3.036 2.021 7.26186 2.021 12.7732C2.021 18.2845 6.48878 20.964 12 20.964C17.5113 20.964 21.979 18.2846 21.979 12.7734C21.979 7.26216 17.5113 3.036 12 3.036ZM14.4212 16.9003H9.57884C8.89344 16.9012 8.2158 16.7552 7.59164 16.472C7.14074 16.2673 5.82542 16.6973 5.46164 16.3705C5.02082 15.9745 5.55524 14.7954 5.28464 14.2616C4.94336 13.5882 4.76607 12.8437 4.7672 12.0887C4.7672 10.8127 5.27412 9.58884 6.17644 8.68652C7.07876 7.7842 8.30258 7.27728 9.57866 7.27728H14.4211C15.6972 7.27728 16.921 7.7842 17.8233 8.68652C18.7256 9.58884 19.2325 10.8127 19.2325 12.0887C19.2326 12.7206 19.1081 13.3463 18.8664 13.93C18.6246 14.5138 18.2702 15.0443 17.8234 15.4911C17.3767 15.9379 16.8463 16.2923 16.2625 16.5341C15.6788 16.776 15.0531 16.9005 14.4213 16.9005L14.4212 16.9003Z" fill="url(#paint0_linear_25461_245)"/>
<path d="M12 3.036C6.48872 3.036 2.021 7.26186 2.021 12.7732C2.021 18.2845 6.48878 20.964 12 20.964C17.5113 20.964 21.979 18.2846 21.979 12.7734C21.979 7.26216 17.5113 3.036 12 3.036ZM14.4212 16.9003H9.57884C8.89344 16.9012 8.2158 16.7552 7.59164 16.472C7.14074 16.2673 5.82542 16.6973 5.46164 16.3705C5.02082 15.9745 5.55524 14.7954 5.28464 14.2616C4.94336 13.5882 4.76607 12.8437 4.7672 12.0887C4.7672 10.8127 5.27412 9.58884 6.17644 8.68652C7.07876 7.7842 8.30258 7.27728 9.57866 7.27728H14.4211C15.6972 7.27728 16.921 7.7842 17.8233 8.68652C18.7256 9.58884 19.2325 10.8127 19.2325 12.0887C19.2326 12.7206 19.1081 13.3463 18.8664 13.93C18.6246 14.5138 18.2702 15.0443 17.8234 15.4911C17.3767 15.9379 16.8463 16.2923 16.2625 16.5341C15.6788 16.776 15.0531 16.9005 14.4213 16.9005L14.4212 16.9003Z" fill="url(#paint1_linear_25461_245)"/>
<path d="M8.4365 11.932H7.01324V15.0357H8.4365V11.932Z" fill="#75CCCC"/>
<path d="M11.2958 10.5546H9.8725V15.0357H11.2958V10.5546Z" fill="#75CCCC"/>
<path d="M14.1551 12.3505H12.7318V15.0357H14.1551V12.3505Z" fill="#75CCCC"/>
<path d="M16.9868 9.96175H15.5635V15.0357H16.9868V9.96175Z" fill="#75CCCC"/>
<defs>
<linearGradient id="paint0_linear_25461_245" x1="5.32016" y1="3.55278" x2="20.0794" y2="23.3993" gradientUnits="userSpaceOnUse">
<stop stop-color="#B2F288"/>
<stop offset="0.181" stop-color="#80D79C"/>
<stop offset="0.371" stop-color="#52BEAD"/>
<stop offset="0.554" stop-color="#2FAABB"/>
<stop offset="0.724" stop-color="#159CC5"/>
<stop offset="0.878" stop-color="#0594CB"/>
<stop offset="1" stop-color="#0091CD"/>
</linearGradient>
<linearGradient id="paint1_linear_25461_245" x1="5.32016" y1="3.55278" x2="20.0794" y2="23.3993" gradientUnits="userSpaceOnUse">
<stop stop-color="#B2F288"/>
<stop offset="0.181" stop-color="#80D79C"/>
<stop offset="0.371" stop-color="#52BEAD"/>
<stop offset="0.554" stop-color="#2FAABB"/>
<stop offset="0.724" stop-color="#159CC5"/>
<stop offset="0.878" stop-color="#0594CB"/>
<stop offset="1" stop-color="#0091CD"/>
</linearGradient>
</defs>
</svg>
