<svg width="80" height="56" viewBox="0 0 80 56" fill="none" xmlns="http://www.w3.org/2000/svg">
<path fill-rule="evenodd" clip-rule="evenodd" d="M7 2.00391V51.0016L76 51.0016L76 54.0016H4V2.00391H7Z" class="svg-primary-color"/>
<path fill-rule="evenodd" clip-rule="evenodd" d="M7 2.00391V51.0016L76 51.0016L76 54.0016H4V2.00391H7Z" fill="white" fill-opacity="0.6"/>
<path d="M12 33.5C12 33.2239 12.2239 33 12.5 33H21.5C21.7761 33 22 33.2239 22 33.5V48.5C22 48.7761 21.7761 49 21.5 49H12.5C12.2239 49 12 48.7761 12 48.5V33.5Z" class="svg-primary-color"/>
<path d="M12 33.5C12 33.2239 12.2239 33 12.5 33H21.5C21.7761 33 22 33.2239 22 33.5V48.5C22 48.7761 21.7761 49 21.5 49H12.5C12.2239 49 12 48.7761 12 48.5V33.5Z" fill="white" fill-opacity="0.4"/>
<path d="M28 13.5C28 13.2239 28.2239 13 28.5 13H37.5C37.7761 13 38 13.2239 38 13.5V48.5C38 48.7761 37.7761 49 37.5 49H28.5C28.2239 49 28 48.7761 28 48.5V13.5Z" class="svg-primary-color"/>
<path d="M28 13.5C28 13.2239 28.2239 13 28.5 13H37.5C37.7761 13 38 13.2239 38 13.5V48.5C38 48.7761 37.7761 49 37.5 49H28.5C28.2239 49 28 48.7761 28 48.5V13.5Z" fill="white" fill-opacity="0.4"/>
<path d="M44 25.5C44 25.2239 44.2239 25 44.5 25H53.5C53.7761 25 54 25.2239 54 25.5V48.5C54 48.7761 53.7761 49 53.5 49H44.5C44.2239 49 44 48.7761 44 48.5V25.5Z" class="svg-primary-color"/>
<path d="M44 25.5C44 25.2239 44.2239 25 44.5 25H53.5C53.7761 25 54 25.2239 54 25.5V48.5C54 48.7761 53.7761 49 53.5 49H44.5C44.2239 49 44 48.7761 44 48.5V25.5Z" fill="white" fill-opacity="0.4"/>
<path d="M60 39.5C60 39.2239 60.2239 39 60.5 39H69.5C69.7761 39 70 39.2239 70 39.5V48.5C70 48.7761 69.7761 49 69.5 49H60.5C60.2239 49 60 48.7761 60 48.5V39.5Z" class="svg-primary-color"/>
<path d="M60 39.5C60 39.2239 60.2239 39 60.5 39H69.5C69.7761 39 70 39.2239 70 39.5V48.5C70 48.7761 69.7761 49 69.5 49H60.5C60.2239 49 60 48.7761 60 48.5V39.5Z" fill="white" fill-opacity="0.4"/>
<path d="M37.686 5.23112C37.2792 4.82427 36.6138 4.84383 36.2315 5.27386L34.8455 6.83274C34.1868 7.57354 33.2442 8.63331 32.1089 9.90921C29.8382 12.4611 26.7969 15.8774 23.714 19.3352C17.5164 26.2866 11.2327 33.3131 10.6063 33.9394C10.0205 34.5252 10.0205 35.475 10.6063 36.0607C11.1921 36.6465 12.1419 36.6465 12.7277 36.0607C13.4346 35.3538 19.8175 28.2136 25.9533 21.3316C29.0371 17.8728 32.0791 14.4557 34.3501 11.9034C35.4725 10.642 36.4066 9.59182 37.0644 8.85213L49.5834 21.3711C49.9141 21.7019 50.43 21.7591 50.8253 21.509L72.851 7.56892L72.8605 7.56226C73.5392 7.08719 73.7043 6.15189 73.2292 5.47322C72.7567 4.79827 71.8291 4.63132 71.1513 5.09679L50.5191 18.0642L37.686 5.23112Z" class="svg-primary-color"/>
<path d="M37.686 5.23112C37.2792 4.82427 36.6138 4.84383 36.2315 5.27386L34.8455 6.83274C34.1868 7.57354 33.2442 8.63331 32.1089 9.90921C29.8382 12.4611 26.7969 15.8774 23.714 19.3352C17.5164 26.2866 11.2327 33.3131 10.6063 33.9394C10.0205 34.5252 10.0205 35.475 10.6063 36.0607C11.1921 36.6465 12.1419 36.6465 12.7277 36.0607C13.4346 35.3538 19.8175 28.2136 25.9533 21.3316C29.0371 17.8728 32.0791 14.4557 34.3501 11.9034C35.4725 10.642 36.4066 9.59182 37.0644 8.85213L49.5834 21.3711C49.9141 21.7019 50.43 21.7591 50.8253 21.509L72.851 7.56892L72.8605 7.56226C73.5392 7.08719 73.7043 6.15189 73.2292 5.47322C72.7567 4.79827 71.8291 4.63132 71.1513 5.09679L50.5191 18.0642L37.686 5.23112Z" fill="white" fill-opacity="0.6"/>
</svg>
