<svg width="80" height="56" viewBox="0 0 80 56" fill="none" xmlns="http://www.w3.org/2000/svg">
<circle cx="40" cy="28" r="25" class="svg-primary-color"/>
<circle cx="40" cy="28" r="25" fill="white" fill-opacity="0.9"/>
<circle cx="40" cy="14" r="8" class="svg-primary-color"/>
<circle cx="40" cy="14" r="8" fill="white" fill-opacity="0.6"/>
<circle cx="43" cy="42" r="5" class="svg-primary-color"/>
<circle cx="43" cy="42" r="5" fill="white" fill-opacity="0.6"/>
<circle cx="31" cy="43" r="5" class="svg-primary-color"/>
<circle cx="31" cy="43" r="5" fill="white" fill-opacity="0.4"/>
<circle cx="28" cy="19" r="3" class="svg-primary-color"/>
<circle cx="28" cy="19" r="3" fill="white" fill-opacity="0.6"/>
<circle cx="53" cy="29" r="10" class="svg-primary-color"/>
<circle cx="53" cy="29" r="10" fill="white" fill-opacity="0.4"/>
<circle cx="34" cy="29" r="7" class="svg-primary-color"/>
<circle cx="34" cy="29" r="7" fill="white" fill-opacity="0.4"/>
<circle cx="38.5" cy="11.5" r="3.5" class="svg-primary-color"/>
<circle cx="38.5" cy="11.5" r="3.5" fill="white" fill-opacity="0.8"/>
<circle cx="43.5" cy="16.5" r="2.5" class="svg-primary-color"/>
<circle cx="43.5" cy="16.5" r="2.5" fill="white" fill-opacity="0.8"/>
<circle cx="49.5" cy="27.5" r="4.5" class="svg-primary-color"/>
<circle cx="49.5" cy="27.5" r="4.5" fill="white" fill-opacity="0.8"/>
<circle cx="58" cy="27" r="3" class="svg-primary-color"/>
<circle cx="58" cy="27" r="3" fill="white" fill-opacity="0.8"/>
<circle cx="58" cy="27" r="3" class="svg-primary-color"/>
<circle cx="58" cy="27" r="3" fill="white" fill-opacity="0.8"/>
<circle cx="55" cy="34" r="3" class="svg-primary-color"/>
<circle cx="55" cy="34" r="3" fill="white" fill-opacity="0.8"/>
</svg>
