<svg width="80" height="56" viewBox="0 0 80 56" fill="none" xmlns="http://www.w3.org/2000/svg">
<path d="M38.6602 4.67595C38.9362 4.67033 39.162 4.89402 39.1621 5.17009V11.6808C29.5611 11.739 21.796 19.5398 21.7959 29.1545C21.7959 38.8053 29.6197 46.6291 39.2705 46.6291C48.9212 46.6289 56.7441 38.8052 56.7441 29.1545C56.7441 29.0471 56.7422 28.94 56.7402 28.8332H62.8242C63.1003 28.8333 63.325 29.0591 63.3193 29.3351C63.052 42.4476 52.3386 52.9952 39.1621 52.9953C25.8179 52.9953 15.0001 42.1774 15 28.8332C15 15.6566 25.5475 4.94311 38.6602 4.67595Z" class="svg-primary-color"/>
<path d="M38.6602 4.67595C38.9362 4.67033 39.162 4.89402 39.1621 5.17009V11.6808C29.5611 11.739 21.796 19.5398 21.7959 29.1545C21.7959 38.8053 29.6197 46.6291 39.2705 46.6291C48.9212 46.6289 56.7441 38.8052 56.7441 29.1545C56.7441 29.0471 56.7422 28.94 56.7402 28.8332H62.8242C63.1003 28.8333 63.325 29.0591 63.3193 29.3351C63.052 42.4476 52.3386 52.9952 39.1621 52.9953C25.8179 52.9953 15.0001 42.1774 15 28.8332C15 15.6566 25.5475 4.94311 38.6602 4.67595Z" fill="white" fill-opacity="0.4"/>
<path d="M44.8887 3.00317C55.3781 4.29792 63.6936 12.6133 64.9883 23.1028C65.0242 23.396 64.7926 23.6516 64.4971 23.6516H55.8584C54.0791 18.283 49.768 14.0694 44.3389 12.426V3.49438C44.3389 3.19871 44.5952 2.96695 44.8887 3.00317Z" class="svg-primary-color"/>
<path d="M44.8887 3.00317C55.3781 4.29792 63.6936 12.6133 64.9883 23.1028C65.0242 23.396 64.7926 23.6516 64.4971 23.6516H55.8584C54.0791 18.283 49.768 14.0694 44.3389 12.426V3.49438C44.3389 3.19871 44.5952 2.96695 44.8887 3.00317Z" fill="white" fill-opacity="0.6"/>
</svg>
