<svg width="80" height="56" viewBox="0 0 80 56" fill="none" xmlns="http://www.w3.org/2000/svg">
<path fill-rule="evenodd" clip-rule="evenodd" d="M5 26.002H76L76 29.002H4V26.002H5Z" class="svg-primary-color"/>
<path fill-rule="evenodd" clip-rule="evenodd" d="M5 26.002H76L76 29.002H4V26.002H5Z" fill="white" fill-opacity="0.6"/>
<path fill-rule="evenodd" clip-rule="evenodd" d="M24.0417 2H27L27 54H24V2H24.0417Z" class="svg-primary-color"/>
<path fill-rule="evenodd" clip-rule="evenodd" d="M24.0417 2H27L27 54H24V2H24.0417Z" fill="white" fill-opacity="0.6"/>
<path d="M53.666 18.0005C54.0616 18.0005 54.4483 17.8832 54.7772 17.6634C55.1061 17.4437 55.3624 17.1313 55.5138 16.7659C55.6651 16.4004 55.7048 15.9983 55.6276 15.6103C55.5504 15.2223 55.3599 14.866 55.0802 14.5863C54.8005 14.3066 54.4442 14.1161 54.0562 14.0389C53.6682 13.9617 53.2661 14.0014 52.9006 14.1527C52.5352 14.3041 52.2228 14.5605 52.0031 14.8893C51.7833 15.2182 51.666 15.6049 51.666 16.0005C51.666 16.5309 51.8767 17.0396 52.2518 17.4147C52.6269 17.7898 53.1356 18.0005 53.666 18.0005Z" class="svg-primary-color"/>
<path d="M53.666 18.0005C54.0616 18.0005 54.4483 17.8832 54.7772 17.6634C55.1061 17.4437 55.3624 17.1313 55.5138 16.7659C55.6651 16.4004 55.7048 15.9983 55.6276 15.6103C55.5504 15.2223 55.3599 14.866 55.0802 14.5863C54.8005 14.3066 54.4442 14.1161 54.0562 14.0389C53.6682 13.9617 53.2661 14.0014 52.9006 14.1527C52.5352 14.3041 52.2228 14.5605 52.0031 14.8893C51.7833 15.2182 51.666 15.6049 51.666 16.0005C51.666 16.5309 51.8767 17.0396 52.2518 17.4147C52.6269 17.7898 53.1356 18.0005 53.666 18.0005Z" fill="white" fill-opacity="0.4"/>
<path d="M42.4432 42.9969C42.1143 43.2167 41.7276 43.334 41.332 43.334C40.8016 43.334 40.2929 43.1233 39.9178 42.7482C39.5427 42.3731 39.332 41.8644 39.332 41.334C39.332 40.9384 39.4493 40.5517 39.6691 40.2228C39.8889 39.8939 40.2012 39.6376 40.5667 39.4862C40.9321 39.3349 41.3342 39.2952 41.7222 39.3724C42.1102 39.4496 42.4665 39.6401 42.7462 39.9198C43.0259 40.1995 43.2164 40.5558 43.2936 40.9438C43.3708 41.3318 43.3312 41.7339 43.1798 42.0994C43.0284 42.4648 42.7721 42.7772 42.4432 42.9969Z" class="svg-primary-color"/>
<path d="M42.4432 42.9969C42.1143 43.2167 41.7276 43.334 41.332 43.334C40.8016 43.334 40.2929 43.1233 39.9178 42.7482C39.5427 42.3731 39.332 41.8644 39.332 41.334C39.332 40.9384 39.4493 40.5517 39.6691 40.2228C39.8889 39.8939 40.2012 39.6376 40.5667 39.4862C40.9321 39.3349 41.3342 39.2952 41.7222 39.3724C42.1102 39.4496 42.4665 39.6401 42.7462 39.9198C43.0259 40.1995 43.2164 40.5558 43.2936 40.9438C43.3708 41.3318 43.3312 41.7339 43.1798 42.0994C43.0284 42.4648 42.7721 42.7772 42.4432 42.9969Z" fill="white" fill-opacity="0.4"/>
<path d="M14.7772 44.9969C14.4483 45.2167 14.0616 45.334 13.666 45.334C13.1356 45.334 12.6269 45.1233 12.2518 44.7482C11.8767 44.3731 11.666 43.8644 11.666 43.334C11.666 42.9384 11.7833 42.5517 12.0031 42.2228C12.2228 41.8939 12.5352 41.6376 12.9006 41.4862C13.2661 41.3349 13.6682 41.2952 14.0562 41.3724C14.4442 41.4496 14.8005 41.6401 15.0802 41.9198C15.3599 42.1995 15.5504 42.5558 15.6276 42.9438C15.7048 43.3318 15.6651 43.7339 15.5138 44.0994C15.3624 44.4648 15.1061 44.7772 14.7772 44.9969Z" class="svg-primary-color"/>
<path d="M14.7772 44.9969C14.4483 45.2167 14.0616 45.334 13.666 45.334C13.1356 45.334 12.6269 45.1233 12.2518 44.7482C11.8767 44.3731 11.666 43.8644 11.666 43.334C11.666 42.9384 11.7833 42.5517 12.0031 42.2228C12.2228 41.8939 12.5352 41.6376 12.9006 41.4862C13.2661 41.3349 13.6682 41.2952 14.0562 41.3724C14.4442 41.4496 14.8005 41.6401 15.0802 41.9198C15.3599 42.1995 15.5504 42.5558 15.6276 42.9438C15.7048 43.3318 15.6651 43.7339 15.5138 44.0994C15.3624 44.4648 15.1061 44.7772 14.7772 44.9969Z" fill="white" fill-opacity="0.4"/>
<path d="M40.5553 15.9932C39.8975 16.4328 39.1241 16.6674 38.333 16.6674C37.2721 16.6674 36.2547 16.2459 35.5046 15.4958C34.7544 14.7456 34.333 13.7282 34.333 12.6674C34.333 11.8762 34.5676 11.1029 35.0071 10.4451C35.4467 9.78728 36.0714 9.27459 36.8023 8.97184C37.5332 8.66909 38.3374 8.58988 39.1134 8.74422C39.8893 8.89856 40.602 9.27952 41.1614 9.83893C41.7208 10.3983 42.1018 11.1111 42.2561 11.887C42.4105 12.6629 42.3313 13.4672 42.0285 14.1981C41.7258 14.929 41.2131 15.5537 40.5553 15.9932Z" class="svg-primary-color"/>
<path d="M40.5553 15.9932C39.8975 16.4328 39.1241 16.6674 38.333 16.6674C37.2721 16.6674 36.2547 16.2459 35.5046 15.4958C34.7544 14.7456 34.333 13.7282 34.333 12.6674C34.333 11.8762 34.5676 11.1029 35.0071 10.4451C35.4467 9.78728 36.0714 9.27459 36.8023 8.97184C37.5332 8.66909 38.3374 8.58988 39.1134 8.74422C39.8893 8.89856 40.602 9.27952 41.1614 9.83893C41.7208 10.3983 42.1018 11.1111 42.2561 11.887C42.4105 12.6629 42.3313 13.4672 42.0285 14.1981C41.7258 14.929 41.2131 15.5537 40.5553 15.9932Z" fill="white" fill-opacity="0.4"/>
<path d="M58.222 45.3266C57.5642 45.7661 56.7908 46.0007 55.9997 46.0007C54.9388 46.0007 53.9214 45.5793 53.1712 44.8291C52.4211 44.079 51.9997 43.0616 51.9997 42.0007C51.9997 41.2096 52.2343 40.4362 52.6738 39.7784C53.1133 39.1206 53.738 38.6079 54.4689 38.3052C55.1998 38.0024 56.0041 37.9232 56.78 38.0776C57.556 38.2319 58.2687 38.6129 58.8281 39.1723C59.3875 39.7317 59.7685 40.4444 59.9228 41.2203C60.0772 41.9963 59.9979 42.8005 59.6952 43.5314C59.3924 44.2623 58.8797 44.887 58.222 45.3266Z" class="svg-primary-color"/>
<path d="M58.222 45.3266C57.5642 45.7661 56.7908 46.0007 55.9997 46.0007C54.9388 46.0007 53.9214 45.5793 53.1712 44.8291C52.4211 44.079 51.9997 43.0616 51.9997 42.0007C51.9997 41.2096 52.2343 40.4362 52.6738 39.7784C53.1133 39.1206 53.738 38.6079 54.4689 38.3052C55.1998 38.0024 56.0041 37.9232 56.78 38.0776C57.556 38.2319 58.2687 38.6129 58.8281 39.1723C59.3875 39.7317 59.7685 40.4444 59.9228 41.2203C60.0772 41.9963 59.9979 42.8005 59.6952 43.5314C59.3924 44.2623 58.8797 44.887 58.222 45.3266Z" fill="white" fill-opacity="0.4"/>
<path d="M16.5553 17.6599C15.8975 18.0994 15.1241 18.334 14.333 18.334C13.2721 18.334 12.2547 17.9126 11.5046 17.1625C10.7544 16.4123 10.333 15.3949 10.333 14.334C10.333 13.5429 10.5676 12.7695 11.0071 12.1117C11.4467 11.4539 12.0714 10.9413 12.8023 10.6385C13.5332 10.3358 14.3374 10.2565 15.1134 10.4109C15.8893 10.5652 16.602 10.9462 17.1614 11.5056C17.7208 12.065 18.1018 12.7777 18.2561 13.5537C18.4105 14.3296 18.3313 15.1339 18.0285 15.8648C17.7258 16.5957 17.2131 17.2204 16.5553 17.6599Z" class="svg-primary-color"/>
<path d="M16.5553 17.6599C15.8975 18.0994 15.1241 18.334 14.333 18.334C13.2721 18.334 12.2547 17.9126 11.5046 17.1625C10.7544 16.4123 10.333 15.3949 10.333 14.334C10.333 13.5429 10.5676 12.7695 11.0071 12.1117C11.4467 11.4539 12.0714 10.9413 12.8023 10.6385C13.5332 10.3358 14.3374 10.2565 15.1134 10.4109C15.8893 10.5652 16.602 10.9462 17.1614 11.5056C17.7208 12.065 18.1018 12.7777 18.2561 13.5537C18.4105 14.3296 18.3313 15.1339 18.0285 15.8648C17.7258 16.5957 17.2131 17.2204 16.5553 17.6599Z" fill="white" fill-opacity="0.4"/>
<path d="M64.666 12C65.4571 12 66.2305 11.7654 66.8883 11.3259C67.5461 10.8864 68.0588 10.2616 68.3615 9.53074C68.6643 8.79983 68.7435 7.99557 68.5892 7.21964C68.4348 6.44372 68.0539 5.73099 67.4944 5.17158C66.935 4.61217 66.2223 4.2312 65.4464 4.07686C64.6705 3.92252 63.8662 4.00173 63.1353 4.30448C62.4044 4.60723 61.7797 5.11993 61.3401 5.77772C60.9006 6.43552 60.666 7.20888 60.666 8C60.666 9.06087 61.0874 10.0783 61.8376 10.8284C62.5877 11.5786 63.6052 12 64.666 12Z" class="svg-primary-color"/>
<path d="M64.666 12C65.4571 12 66.2305 11.7654 66.8883 11.3259C67.5461 10.8864 68.0588 10.2616 68.3615 9.53074C68.6643 8.79983 68.7435 7.99557 68.5892 7.21964C68.4348 6.44372 68.0539 5.73099 67.4944 5.17158C66.935 4.61217 66.2223 4.2312 65.4464 4.07686C64.6705 3.92252 63.8662 4.00173 63.1353 4.30448C62.4044 4.60723 61.7797 5.11993 61.3401 5.77772C60.9006 6.43552 60.666 7.20888 60.666 8C60.666 9.06087 61.0874 10.0783 61.8376 10.8284C62.5877 11.5786 63.6052 12 64.666 12Z" fill="white" fill-opacity="0.6"/>
<path d="M12 39C12.7911 39 13.5645 38.7654 14.2223 38.3259C14.8801 37.8864 15.3928 37.2616 15.6955 36.5307C15.9983 35.7998 16.0775 34.9956 15.9231 34.2196C15.7688 33.4437 15.3878 32.731 14.8284 32.1716C14.269 31.6122 13.5563 31.2312 12.7804 31.0769C12.0044 30.9225 11.2002 31.0017 10.4693 31.3045C9.73836 31.6072 9.11365 32.1199 8.67412 32.7777C8.2346 33.4355 8 34.2089 8 35C8 36.0609 8.42143 37.0783 9.17157 37.8284C9.92172 38.5786 10.9391 39 12 39Z" class="svg-primary-color"/>
<path d="M12 39C12.7911 39 13.5645 38.7654 14.2223 38.3259C14.8801 37.8864 15.3928 37.2616 15.6955 36.5307C15.9983 35.7998 16.0775 34.9956 15.9231 34.2196C15.7688 33.4437 15.3878 32.731 14.8284 32.1716C14.269 31.6122 13.5563 31.2312 12.7804 31.0769C12.0044 30.9225 11.2002 31.0017 10.4693 31.3045C9.73836 31.6072 9.11365 32.1199 8.67412 32.7777C8.2346 33.4355 8 34.2089 8 35C8 36.0609 8.42143 37.0783 9.17157 37.8284C9.92172 38.5786 10.9391 39 12 39Z" fill="white" fill-opacity="0.6"/>
</svg>
